<svg width="25" height="24" viewBox="0 0 25 24" fill="none" xmlns="http://www.w3.org/2000/svg">
    <path d="M7.10551 5.47432C7.3397 4.50856 8.71323 4.50856 8.94741 5.47432L9.59178 8.13168C9.67539 8.47648 9.94461 8.7457 10.2894 8.82931L12.9468 9.47368C13.9125 9.70786 13.9125 11.0814 12.9468 11.3156L10.2894 11.9599C9.94461 12.0436 9.67539 12.3128 9.59178 12.6576L8.94741 15.3149C8.71323 16.2807 7.3397 16.2807 7.10551 15.3149L6.46114 12.6576C6.37753 12.3128 6.10832 12.0436 5.76351 11.9599L3.10616 11.3156C2.1404 11.0814 2.1404 9.70786 3.10616 9.47368L5.76351 8.82931C6.10832 8.7457 6.37753 8.47648 6.46114 8.13168L7.10551 5.47432Z" fill="white"/>
    <path d="M14.8412 14.7482C14.9853 14.1539 15.8305 14.1539 15.9746 14.7482L16.3712 16.3835C16.4226 16.5957 16.5883 16.7613 16.8005 16.8128L18.4358 17.2093C19.0301 17.3534 19.0301 18.1987 18.4358 18.3428L16.8005 18.7393C16.5883 18.7908 16.4226 18.9565 16.3712 19.1686L15.9746 20.8039C15.8305 21.3983 14.9853 21.3983 14.8412 20.8039L14.4446 19.1686C14.3932 18.9565 14.2275 18.7908 14.0153 18.7393L12.38 18.3428C11.7857 18.1987 11.7857 17.3534 12.38 17.2093L14.0153 16.8128C14.2275 16.7613 14.3932 16.5957 14.4446 16.3835L14.8412 14.7482Z" fill="white"/>
    <path d="M17.6412 5.36817C17.7358 4.97815 18.2905 4.97815 18.385 5.36817L18.6453 6.44133C18.679 6.58058 18.7877 6.6893 18.927 6.72306L20.0002 6.98329C20.3902 7.07786 20.3902 7.63256 20.0002 7.72713L18.927 7.98736C18.7877 8.02113 18.679 8.12985 18.6453 8.2691L18.385 9.34226C18.2905 9.73228 17.7358 9.73228 17.6412 9.34226L17.381 8.2691C17.3472 8.12985 17.2385 8.02113 17.0992 7.98736L16.0261 7.72713C15.636 7.63256 15.636 7.07786 16.0261 6.98329L17.0992 6.72306C17.2385 6.6893 17.3472 6.58058 17.381 6.44133L17.6412 5.36817Z" fill="white"/>
    <path fill-rule="evenodd" clip-rule="evenodd" d="M18.0131 5.55857L17.8007 6.43446C17.7158 6.78457 17.4425 7.05792 17.0924 7.14282L16.2165 7.35521L17.0924 7.5676C17.4425 7.6525 17.7158 7.92586 17.8007 8.27597L18.0131 9.15186L18.2255 8.27597C18.3104 7.92586 18.5838 7.6525 18.9339 7.5676L19.8098 7.35521L18.9339 7.14282C18.5838 7.05792 18.3104 6.78457 18.2255 6.43446L18.0131 5.55857ZM18.4382 5.0843C18.3301 4.63857 17.6961 4.63857 17.5881 5.0843L17.2907 6.31077C17.2521 6.46991 17.1278 6.59417 16.9687 6.63276L15.7422 6.93016C15.2965 7.03824 15.2965 7.67218 15.7422 7.78027L16.9687 8.07767C17.1278 8.11626 17.2521 8.24051 17.2907 8.39965L17.5881 9.62612C17.6961 10.0719 18.3301 10.0719 18.4382 9.62612L18.7356 8.39965C18.7742 8.24051 18.8984 8.11626 19.0575 8.07767L20.284 7.78027C20.7298 7.67218 20.7298 7.03824 20.284 6.93016L19.0575 6.63276C18.8984 6.59417 18.7742 6.46991 18.7356 6.31077L18.4382 5.0843Z" fill="white"/>
</svg>
