<svg width="97" height="19" viewBox="0 0 97 19" fill="none" xmlns="http://www.w3.org/2000/svg">
    <path d="M91.1842 18.7611C90.5337 18.7611 89.8833 18.6996 89.2328 18.5766C88.5823 18.4535 87.9758 18.2337 87.4132 17.9173C86.8507 17.6009 86.376 17.1789 85.9893 16.6515C85.6025 16.1065 85.3564 15.4385 85.2509 14.6474H88.0198C88.1604 15.0693 88.4065 15.4121 88.7581 15.6758C89.1273 15.9395 89.5317 16.1329 89.9712 16.256C90.4283 16.379 90.8765 16.4406 91.316 16.4406C91.5798 16.4406 91.8698 16.423 92.1863 16.3878C92.5203 16.3527 92.8367 16.2736 93.1356 16.1505C93.4345 16.0274 93.6806 15.8516 93.874 15.6231C94.0673 15.377 94.164 15.0517 94.164 14.6474C94.164 14.3309 94.0761 14.0672 93.9003 13.8563C93.7421 13.6453 93.5136 13.4783 93.2147 13.3552C92.9334 13.2146 92.5906 13.1091 92.1863 13.0388C91.3952 12.863 90.5425 12.696 89.6284 12.5378C88.7318 12.362 87.9407 12.0631 87.255 11.6412C87.0089 11.4829 86.7891 11.3071 86.5958 11.1138C86.4024 10.9028 86.2354 10.6655 86.0947 10.4018C85.9541 10.1381 85.8486 9.85677 85.7783 9.55791C85.708 9.25905 85.6728 8.93381 85.6728 8.58221C85.6728 7.86142 85.8135 7.24611 86.0947 6.73629C86.3936 6.22646 86.7979 5.81333 87.3078 5.49688C87.8176 5.16286 88.3977 4.91673 89.0482 4.75851C89.6987 4.60029 90.3843 4.52118 91.1051 4.52118C92.0368 4.52118 92.8807 4.67061 93.6366 4.96948C94.3926 5.26834 95.0167 5.70784 95.5089 6.28799C96.0012 6.86814 96.2912 7.59772 96.3791 8.47673H93.8212C93.7157 8.00206 93.4081 7.62409 92.8983 7.3428C92.406 7.04394 91.7819 6.89451 91.026 6.89451C90.7623 6.89451 90.4722 6.91209 90.1558 6.94725C89.8569 6.98241 89.5668 7.06152 89.2855 7.18458C89.0043 7.30764 88.7757 7.48345 88.5999 7.71199C88.4241 7.92295 88.3362 8.20423 88.3362 8.55584C88.3362 8.88986 88.4153 9.17115 88.5735 9.39969C88.7493 9.62823 88.9955 9.81282 89.3119 9.95347C89.6459 10.0941 90.0239 10.2084 90.4458 10.2963C91.0436 10.4369 91.6852 10.5688 92.3709 10.6918C93.0741 10.8149 93.6454 10.9467 94.0849 11.0874C94.6651 11.2456 95.1573 11.4742 95.5617 11.773C95.9836 12.0719 96.3 12.4499 96.511 12.9069C96.7395 13.364 96.8538 13.9178 96.8538 14.5683C96.8538 15.4121 96.6868 16.1065 96.3528 16.6515C96.0187 17.1789 95.5705 17.6009 95.0079 17.9173C94.4629 18.2337 93.8476 18.4535 93.162 18.5766C92.4939 18.6996 91.8347 18.7611 91.1842 18.7611Z" fill="white"/>
    <path d="M78.2859 18.7611C76.8267 18.7611 75.6049 18.4623 74.6204 17.8646C73.6359 17.2668 72.8887 16.4406 72.3789 15.3858C71.8867 14.3134 71.6405 13.0827 71.6405 11.6939C71.6405 10.2875 71.8955 9.04808 72.4053 7.97569C72.9327 6.9033 73.6886 6.05945 74.6731 5.44414C75.6752 4.82883 76.8794 4.52118 78.2859 4.52118C79.3583 4.52118 80.29 4.72335 81.0811 5.1277C81.8722 5.51446 82.5227 6.04187 83.0325 6.70992C83.5599 7.37796 83.9467 8.12512 84.1928 8.95139C84.4389 9.76008 84.5444 10.6039 84.5092 11.4829C84.5092 11.6763 84.5005 11.8609 84.4829 12.0367C84.4653 12.2125 84.4477 12.3971 84.4301 12.5905H74.3831C74.4358 13.2937 74.6116 13.9354 74.9105 14.5155C75.2269 15.0957 75.6664 15.5616 76.229 15.9132C76.7915 16.2472 77.486 16.4142 78.3122 16.4142C78.7693 16.4142 79.2088 16.3615 79.6307 16.256C80.0702 16.1329 80.457 15.9483 80.791 15.7022C81.1426 15.4385 81.3888 15.1045 81.5294 14.7001H84.2719C84.0434 15.6319 83.6302 16.4054 83.0325 17.0207C82.4524 17.6184 81.7404 18.0579 80.8965 18.3392C80.0702 18.6205 79.2 18.7611 78.2859 18.7611ZM74.4358 10.4281H81.8195C81.8019 9.7425 81.6437 9.13598 81.3448 8.60858C81.0459 8.06359 80.6328 7.64167 80.1054 7.3428C79.578 7.02636 78.9451 6.86814 78.2067 6.86814C77.3981 6.86814 76.7212 7.03515 76.1762 7.36917C75.6488 7.7032 75.2357 8.1427 74.9368 8.68769C74.6555 9.2151 74.4885 9.79524 74.4358 10.4281Z" fill="white"/>
    <path d="M68.1784 18.7616C66.6841 18.7616 65.6117 18.3573 64.9612 17.5486C64.3283 16.7223 64.0119 15.5708 64.0119 14.094V7.13229H61.7968V4.70622H64.0119V0.671558H66.728V4.70622H70.9737V7.13229H66.728V13.6458C66.728 14.138 66.772 14.5863 66.8599 14.9906C66.9654 15.395 67.1588 15.7114 67.44 15.94C67.7213 16.1685 68.1257 16.2916 68.6531 16.3092C69.0574 16.3092 69.409 16.2388 69.7079 16.0982C70.0243 15.9576 70.2792 15.7993 70.4726 15.6235L71.5274 17.654C71.1934 17.9177 70.8418 18.1375 70.4726 18.3133C70.121 18.4715 69.7518 18.5858 69.3651 18.6561C68.9783 18.7264 68.5827 18.7616 68.1784 18.7616Z" fill="white"/>
    <path d="M53.8158 18.7611C53.1829 18.7611 52.5676 18.682 51.9699 18.5238C51.3897 18.348 50.8711 18.0931 50.414 17.7591C49.9569 17.4075 49.5878 16.9768 49.3065 16.4669C49.0428 15.9395 48.9109 15.3242 48.9109 14.621C48.9109 13.7772 49.0691 13.0827 49.3856 12.5378C49.7196 11.9752 50.1591 11.5445 50.7041 11.2456C51.2491 10.9292 51.8732 10.7094 52.5764 10.5864C53.2972 10.4457 54.0443 10.3754 54.8179 10.3754H58.2196C58.2196 9.68976 58.1141 9.09203 57.9032 8.58221C57.6922 8.0548 57.3582 7.65046 56.9011 7.36917C56.4616 7.07031 55.8727 6.92088 55.1343 6.92088C54.6948 6.92088 54.2729 6.97362 53.8685 7.0791C53.4818 7.167 53.1477 7.31643 52.8665 7.5274C52.5852 7.73836 52.3918 8.01964 52.2863 8.37125H49.4383C49.5438 7.7032 49.7811 7.13184 50.1503 6.65718C50.5195 6.16493 50.9766 5.76058 51.5216 5.44414C52.0666 5.1277 52.6467 4.89915 53.262 4.75851C53.8949 4.60029 54.5366 4.52118 55.187 4.52118C57.1912 4.52118 58.6328 5.11012 59.5118 6.28799C60.4084 7.44828 60.8567 9.04808 60.8567 11.0874V18.6029H58.5097L58.4042 16.8361C57.9999 17.3811 57.5164 17.7942 56.9539 18.0755C56.4089 18.3568 55.8639 18.5414 55.3189 18.6293C54.7739 18.7172 54.2729 18.7611 53.8158 18.7611ZM54.2377 16.4669C55.0288 16.4669 55.7232 16.3351 56.321 16.0714C56.9187 15.7901 57.3846 15.3945 57.7186 14.8847C58.0526 14.3573 58.2196 13.742 58.2196 13.0388V12.4586H55.7408C55.231 12.4586 54.73 12.4762 54.2377 12.5114C53.763 12.529 53.3235 12.5993 52.9192 12.7223C52.5324 12.8278 52.216 13.0124 51.9699 13.2761C51.7413 13.5398 51.6271 13.9178 51.6271 14.41C51.6271 14.8847 51.7501 15.2715 51.9962 15.5703C52.2424 15.8692 52.5676 16.0977 52.9719 16.256C53.3763 16.3966 53.7982 16.4669 54.2377 16.4669Z" fill="white"/>
    <path d="M40.6873 18.6029V4.70577H43.2452L43.3771 6.70992C43.7287 6.16493 44.133 5.73421 44.5901 5.41777C45.0472 5.10133 45.5482 4.87278 46.0932 4.73214C46.6382 4.5915 47.2096 4.52118 47.8073 4.52118C47.9655 4.52118 48.1149 4.52118 48.2556 4.52118C48.3962 4.52118 48.5281 4.52118 48.6511 4.52118V7.13184H47.8073C46.8052 7.13184 45.9701 7.33401 45.3021 7.73836C44.6516 8.1427 44.1682 8.70527 43.8517 9.42606C43.5529 10.1468 43.4034 10.9731 43.4034 11.9049V18.6029H40.6873Z" fill="white"/>
    <path d="M33.3902 18.7611C31.931 18.7611 30.7092 18.4623 29.7247 17.8646C28.7578 17.2668 28.0282 16.4406 27.536 15.3858C27.0613 14.3134 26.824 13.0827 26.824 11.6939C26.824 10.3226 27.0701 9.10083 27.5623 8.02843C28.0722 6.93846 28.8281 6.08582 29.8302 5.47051C30.8498 4.83762 32.1068 4.52118 33.6011 4.52118C34.6208 4.52118 35.5262 4.69698 36.3173 5.04859C37.1084 5.38261 37.75 5.88365 38.2423 6.55169C38.7521 7.20216 39.0861 8.01964 39.2444 9.00413H36.5282C36.2997 8.28334 35.9129 7.76473 35.3679 7.44828C34.8405 7.13184 34.2164 6.97362 33.4956 6.97362C32.5287 6.97362 31.7552 7.20216 31.1751 7.65925C30.6125 8.11633 30.1994 8.70527 29.9357 9.42606C29.672 10.1468 29.5401 10.9028 29.5401 11.6939C29.5401 12.5202 29.672 13.2849 29.9357 13.9881C30.2169 14.6913 30.6389 15.2627 31.2014 15.7022C31.7816 16.1241 32.5375 16.3351 33.4693 16.3351C34.1725 16.3351 34.8229 16.1856 35.4207 15.8868C36.0184 15.5703 36.4052 15.0429 36.581 14.3046H39.3762C39.218 15.3242 38.8488 16.1681 38.2687 16.8361C37.6885 17.4866 36.9677 17.97 36.1063 18.2865C35.2624 18.6029 34.3571 18.7611 33.3902 18.7611Z" fill="white"/>
    <path d="M19.1587 18.7611C17.7171 18.7611 16.4953 18.4711 15.4932 17.8909C14.4912 17.2932 13.7264 16.4581 13.199 15.3858C12.6892 14.3134 12.4343 13.074 12.4343 11.6675C12.4343 10.2435 12.698 9.00413 13.2254 7.94932C13.7528 6.87693 14.5175 6.04187 15.5196 5.44414C16.5217 4.82883 17.7435 4.52118 19.1851 4.52118C20.6266 4.52118 21.8485 4.82883 22.8505 5.44414C23.8526 6.04187 24.6086 6.87693 25.1184 7.94932C25.6282 9.02171 25.8831 10.2699 25.8831 11.6939C25.8831 13.0827 25.6194 14.3134 25.092 15.3858C24.5822 16.4581 23.8262 17.2932 22.8242 17.8909C21.8397 18.4711 20.6179 18.7611 19.1587 18.7611ZM19.1587 16.3351C20.108 16.3351 20.8728 16.1241 21.4529 15.7022C22.0506 15.2803 22.4901 14.7177 22.7714 14.0145C23.0527 13.2937 23.1934 12.5114 23.1934 11.6675C23.1934 10.8237 23.0527 10.0502 22.7714 9.34695C22.4901 8.64374 22.0506 8.08117 21.4529 7.65925C20.8728 7.21974 20.108 6.99999 19.1587 6.99999C18.227 6.99999 17.4622 7.21974 16.8645 7.65925C16.2668 8.08117 15.8273 8.64374 15.546 9.34695C15.2823 10.0502 15.1504 10.8237 15.1504 11.6675C15.1504 12.529 15.2823 13.3113 15.546 14.0145C15.8273 14.7177 16.2668 15.2803 16.8645 15.7022C17.4622 16.1241 18.227 16.3351 19.1587 16.3351Z" fill="white"/>
    <path d="M6.03205 18.7611C5.38158 18.7611 4.73111 18.6996 4.08064 18.5766C3.43018 18.4535 2.82366 18.2337 2.2611 17.9173C1.69853 17.6009 1.22386 17.1789 0.8371 16.6515C0.450336 16.1065 0.204213 15.4385 0.098732 14.6474H2.86761C3.00825 15.0693 3.25438 15.4121 3.60598 15.6758C3.97516 15.9395 4.37951 16.1329 4.81901 16.256C5.2761 16.379 5.72439 16.4406 6.1639 16.4406C6.4276 16.4406 6.71767 16.423 7.03412 16.3878C7.36814 16.3527 7.68458 16.2736 7.98345 16.1505C8.28231 16.0274 8.52843 15.8516 8.72181 15.6231C8.9152 15.377 9.01189 15.0517 9.01189 14.6474C9.01189 14.3309 8.92399 14.0672 8.74818 13.8563C8.58996 13.6453 8.36142 13.4783 8.06256 13.3552C7.78127 13.2146 7.43846 13.1091 7.03412 13.0388C6.24301 12.863 5.39037 12.696 4.4762 12.5378C3.57961 12.362 2.7885 12.0631 2.10287 11.6412C1.85675 11.4829 1.637 11.3071 1.44362 11.1138C1.25023 10.9028 1.08322 10.6655 0.942581 10.4018C0.80194 10.1381 0.696458 9.85677 0.626138 9.55791C0.555817 9.25905 0.520657 8.93381 0.520657 8.58221C0.520657 7.86142 0.661298 7.24611 0.942581 6.73629C1.24144 6.22646 1.64579 5.81333 2.15561 5.49688C2.66544 5.16286 3.24559 4.91673 3.89605 4.75851C4.54652 4.60029 5.23215 4.52118 5.95293 4.52118C6.88468 4.52118 7.72853 4.67061 8.48448 4.96948C9.24043 5.26834 9.86453 5.70784 10.3568 6.28799C10.849 6.86814 11.1391 7.59772 11.227 8.47673H8.66907C8.56359 8.00206 8.25594 7.62409 7.74611 7.3428C7.25387 7.04394 6.62977 6.89451 5.87382 6.89451C5.61012 6.89451 5.32005 6.91209 5.0036 6.94725C4.70474 6.98241 4.41467 7.06152 4.13339 7.18458C3.8521 7.30764 3.62356 7.48345 3.44776 7.71199C3.27196 7.92295 3.18406 8.20423 3.18406 8.55584C3.18406 8.88986 3.26317 9.17115 3.42139 9.39969C3.59719 9.62823 3.84331 9.81282 4.15976 9.95347C4.49378 10.0941 4.87175 10.2084 5.29368 10.2963C5.8914 10.4369 6.53308 10.5688 7.21871 10.6918C7.92192 10.8149 8.49327 10.9467 8.93278 11.0874C9.51292 11.2456 10.0052 11.4742 10.4095 11.773C10.8314 12.0719 11.1479 12.4499 11.3588 12.9069C11.5874 13.364 11.7017 13.9178 11.7017 14.5683C11.7017 15.4121 11.5346 16.1065 11.2006 16.6515C10.8666 17.1789 10.4183 17.6009 9.85574 17.9173C9.31075 18.2337 8.69544 18.4535 8.00982 18.5766C7.34177 18.6996 6.68251 18.7611 6.03205 18.7611Z" fill="white"/>
</svg>
